<svg width="15" height="17" viewBox="0 0 15 17" fill="none" xmlns="http://www.w3.org/2000/svg">
<path d="M4.42293 3.46155C4.10754 3.46155 3.846 3.20001 3.846 2.88463V0.576926C3.846 0.26154 4.10754 0 4.42293 0C4.73831 0 4.99985 0.26154 4.99985 0.576926V2.88463C4.99985 3.20001 4.73831 3.46155 4.42293 3.46155Z" fill="#292D32"/>
<path d="M10.5769 3.46155C10.2615 3.46155 10 3.20001 10 2.88463V0.576926C10 0.26154 10.2615 0 10.5769 0C10.8923 0 11.1539 0.26154 11.1539 0.576926V2.88463C11.1539 3.20001 10.8923 3.46155 10.5769 3.46155Z" fill="#292D32"/>
<path d="M4.80773 10.1924C4.70773 10.1924 4.60773 10.1693 4.51542 10.1308C4.41542 10.0924 4.3385 10.0385 4.26158 9.96928C4.12312 9.82313 4.0385 9.63083 4.0385 9.42313C4.0385 9.32313 4.06158 9.22313 4.10004 9.13082C4.1385 9.03851 4.19235 8.95391 4.26158 8.87698C4.3385 8.80775 4.41542 8.75389 4.51542 8.71543C4.79235 8.60004 5.1385 8.6616 5.35389 8.87698C5.49235 9.02314 5.57697 9.22313 5.57697 9.42313C5.57697 9.46929 5.56927 9.52314 5.56158 9.57699C5.55389 9.62314 5.5385 9.66929 5.51543 9.71545C5.50004 9.7616 5.47697 9.80775 5.4462 9.8539C5.42312 9.89236 5.38466 9.93082 5.35389 9.96928C5.20773 10.1077 5.00773 10.1924 4.80773 10.1924Z" fill="#292D32"/>
<path d="M7.49998 10.1924C7.39998 10.1924 7.29998 10.1693 7.20767 10.1308C7.10767 10.0924 7.03075 10.0385 6.95383 9.96927C6.81537 9.82311 6.73075 9.63081 6.73075 9.42312C6.73075 9.32312 6.75383 9.22311 6.79229 9.13081C6.83075 9.0385 6.8846 8.95389 6.95383 8.87697C7.03075 8.80774 7.10767 8.75387 7.20767 8.71541C7.4846 8.59233 7.83075 8.66158 8.04614 8.87697C8.1846 9.02312 8.26922 9.22312 8.26922 9.42312C8.26922 9.46927 8.26153 9.52313 8.25383 9.57697C8.24614 9.62313 8.23076 9.66928 8.20768 9.71543C8.19229 9.76158 8.16922 9.80773 8.13845 9.85389C8.11537 9.89235 8.07691 9.93081 8.04614 9.96927C7.89999 10.1077 7.69999 10.1924 7.49998 10.1924Z" fill="#292D32"/>
<path d="M10.1922 10.1924C10.0922 10.1924 9.99223 10.1693 9.89993 10.1308C9.79993 10.0924 9.723 10.0385 9.64608 9.96927C9.61531 9.93081 9.58454 9.89235 9.55377 9.85389C9.523 9.80773 9.49993 9.76158 9.48454 9.71543C9.46146 9.66928 9.44608 9.62313 9.43839 9.57697C9.43069 9.52313 9.423 9.46927 9.423 9.42312C9.423 9.22312 9.50762 9.02312 9.64608 8.87697C9.723 8.80774 9.79993 8.75387 9.89993 8.71541C10.1845 8.59233 10.523 8.66158 10.7384 8.87697C10.8769 9.02312 10.9615 9.22312 10.9615 9.42312C10.9615 9.46927 10.9538 9.52313 10.9461 9.57697C10.9384 9.62313 10.923 9.66928 10.8999 9.71543C10.8845 9.76158 10.8615 9.80773 10.8307 9.85389C10.8076 9.89235 10.7692 9.93081 10.7384 9.96927C10.5922 10.1077 10.3922 10.1924 10.1922 10.1924Z" fill="#292D32"/>
<path d="M4.80773 12.8847C4.70773 12.8847 4.60773 12.8616 4.51542 12.8232C4.42312 12.7847 4.3385 12.7308 4.26158 12.6616C4.12312 12.5154 4.0385 12.3155 4.0385 12.1155C4.0385 12.0155 4.06158 11.9154 4.10004 11.8231C4.1385 11.7231 4.19235 11.6385 4.26158 11.5693C4.54619 11.2847 5.06927 11.2847 5.35389 11.5693C5.49235 11.7155 5.57697 11.9155 5.57697 12.1155C5.57697 12.3155 5.49235 12.5154 5.35389 12.6616C5.20773 12.8001 5.00773 12.8847 4.80773 12.8847Z" fill="#292D32"/>
<path d="M7.49998 12.8847C7.29998 12.8847 7.09998 12.8001 6.95383 12.6616C6.81537 12.5154 6.73075 12.3155 6.73075 12.1155C6.73075 12.0155 6.75383 11.9154 6.79229 11.8231C6.83075 11.7231 6.8846 11.6385 6.95383 11.5693C7.23845 11.2847 7.76152 11.2847 8.04614 11.5693C8.11537 11.6385 8.16922 11.7231 8.20768 11.8231C8.24614 11.9154 8.26922 12.0155 8.26922 12.1155C8.26922 12.3155 8.1846 12.5154 8.04614 12.6616C7.89999 12.8001 7.69999 12.8847 7.49998 12.8847Z" fill="#292D32"/>
<path d="M10.1922 12.8847C9.99223 12.8847 9.79223 12.8001 9.64608 12.6616C9.57685 12.5924 9.523 12.5078 9.48454 12.4078C9.44608 12.3155 9.423 12.2155 9.423 12.1155C9.423 12.0155 9.44608 11.9155 9.48454 11.8231C9.523 11.7231 9.57685 11.6385 9.64608 11.5693C9.823 11.3924 10.0922 11.3078 10.3384 11.3616C10.3922 11.3693 10.4384 11.3847 10.4845 11.4078C10.5307 11.4231 10.5769 11.4462 10.623 11.477C10.6615 11.5001 10.6999 11.5385 10.7384 11.5693C10.8769 11.7155 10.9615 11.9155 10.9615 12.1155C10.9615 12.3155 10.8769 12.5155 10.7384 12.6616C10.5922 12.8001 10.3922 12.8847 10.1922 12.8847Z" fill="#292D32"/>
<path d="M14.0384 6.60769H0.961428C0.646042 6.60769 0.384502 6.34615 0.384502 6.03076C0.384502 5.71538 0.646042 5.45384 0.961428 5.45384H14.0384C14.3538 5.45384 14.6153 5.71538 14.6153 6.03076C14.6153 6.34615 14.3538 6.60769 14.0384 6.60769Z" fill="#292D32"/>
<path d="M10.577 16.5386H4.4231C1.61539 16.5386 0 14.9232 0 12.1155V5.57697C0 2.76927 1.61539 1.15387 4.4231 1.15387H10.577C13.3847 1.15387 15.0001 2.76927 15.0001 5.57697V12.1155C15.0001 14.9232 13.3847 16.5386 10.577 16.5386ZM4.4231 2.30773C2.22309 2.30773 1.15385 3.37696 1.15385 5.57697V12.1155C1.15385 14.3155 2.22309 15.3847 4.4231 15.3847H10.577C12.777 15.3847 13.8462 14.3155 13.8462 12.1155V5.57697C13.8462 3.37696 12.777 2.30773 10.577 2.30773H4.4231Z" fill="#292D32"/>
</svg>
