<svg width="37" height="37" viewBox="0 0 37 37" fill="none" xmlns="http://www.w3.org/2000/svg">
<path d="M35.4216 29.2436C35.4216 29.8547 35.2859 30.4826 34.9973 31.0936C34.7088 31.7047 34.3354 32.2817 33.8432 32.8248C33.0115 33.7414 32.095 34.4033 31.0597 34.8276C30.0414 35.2519 28.9381 35.4726 27.7501 35.4726C26.0189 35.4726 24.1689 35.0652 22.217 34.2336C20.2652 33.4019 18.3133 32.2817 16.3785 30.873C14.4266 29.4473 12.5766 27.8689 10.8115 26.1207C9.06332 24.3556 7.48488 22.5056 6.07616 20.5707C4.68441 18.6358 3.56423 16.701 2.74955 14.7831C1.93487 12.8482 1.52753 10.9982 1.52753 9.23305C1.52753 8.07892 1.7312 6.9757 2.13854 5.95735C2.54588 4.92203 3.19083 3.97157 4.09038 3.12294C5.17662 2.05367 6.36469 1.52753 7.62066 1.52753C8.09589 1.52753 8.57112 1.62936 8.99543 1.83303C9.43672 2.0367 9.82709 2.34221 10.1326 2.78349L14.0702 8.33351C14.3757 8.75782 14.5964 9.14819 14.7491 9.52158C14.9019 9.878 14.9867 10.2344 14.9867 10.5569C14.9867 10.9642 14.8679 11.3716 14.6303 11.762C14.4097 12.1523 14.0872 12.5597 13.6798 12.967L12.3899 14.3078C12.2032 14.4945 12.1184 14.7152 12.1184 14.9867C12.1184 15.1225 12.1353 15.2413 12.1693 15.3771C12.2202 15.5129 12.2711 15.6147 12.3051 15.7165C12.6106 16.2766 13.1367 17.0065 13.8835 17.889C14.6473 18.7716 15.462 19.6711 16.3445 20.5707C17.261 21.4702 18.1436 22.3019 19.0432 23.0656C19.9257 23.8124 20.6556 24.3216 21.2326 24.6271C21.3175 24.6611 21.4193 24.712 21.5381 24.7629C21.6739 24.8138 21.8097 24.8308 21.9624 24.8308C22.251 24.8308 22.4716 24.729 22.6583 24.5423L23.9482 23.2693C24.3725 22.845 24.7799 22.5225 25.1702 22.3189C25.5606 22.0812 25.951 21.9624 26.3753 21.9624C26.6978 21.9624 27.0372 22.0303 27.4106 22.1831C27.784 22.3358 28.1744 22.5565 28.5987 22.845L34.2166 26.8335C34.6579 27.1391 34.9634 27.4955 35.1501 27.9198C35.3198 28.3441 35.4216 28.7684 35.4216 29.2436Z" stroke="#2A2A2A" stroke-width="3" stroke-miterlimit="10"/>
</svg>
